# xmcd CD database file
#
# Track frame offsets:
#	150
#	8930
#	29365
#	50410
#	69500
#	101260
#	128175
#	153095
#	167985
#	197835
#	212890
#	236575
#	251185
#
# Disc length: 3602 seconds
#
# Revision: 1
# Processed by: cddbd v1.5.2PL0 Copyright (c) Steve Scherf et al.
# Submitted via: CDex 1.51
#
DISCID=b20e100d
DTITLE=Sacred Spirit - Volume 2: Culture Clash
DYEAR=1900
DGENRE=New Age
TTITLE0=Intro
TTITLE1=Culture Clash
TTITLE2=Lay Down
TTITLE3=On The Road
TTITLE4=Legends
TTITLE5=I. No More Cotton II. Interlude "To Be A Slave"
TTITLE6=The Sun Won't Walk No More
TTITLE7=Black Progress
TTITLE8=Roots
TTITLE9=Babes In Juke House
TTITLE10=I. Brownsville, Tennesse (Instrumental) II. Interlude "To Be A Slave" N2
TTITLE11=Slow And Easy
TTITLE12=Sonnet XVIII
EXTD=
EXTT0=
EXTT1=
EXTT2=
EXTT3=
EXTT4=
EXTT5=
EXTT6=
EXTT7=
EXTT8=
EXTT9=
EXTT10=
EXTT11=
EXTT12=
PLAYORDER=
